<svg xmlns="http://www.w3.org/2000/svg" viewBox="0 0 800 600" width="800" height="600">
  <defs>
    <linearGradient id="bg" x1="0" y1="0" x2="1" y2="1">
      <stop offset="0%" stop-color="#eef5ff"/>
      <stop offset="100%" stop-color="#e6efff"/>
    </linearGradient>
    <linearGradient id="accent" x1="0" y1="0" x2="1" y2="1">
      <stop offset="0%" stop-color="#5b7cfa"/>
      <stop offset="100%" stop-color="#7c4dff"/>
    </linearGradient>
  </defs>

  <rect width="800" height="600" fill="url(#bg)"/>

  <rect x="120" y="92" width="560" height="416" rx="24" fill="#ffffff" stroke="#d9e5ff" stroke-width="2"/>

  <rect x="170" y="170" width="160" height="230" rx="14" fill="#f5f9ff" stroke="#d8e6ff"/>
  <rect x="470" y="170" width="160" height="230" rx="14" fill="#f5f9ff" stroke="#d8e6ff"/>

  <line x1="230" y1="212" x2="290" y2="212" stroke="#b7cbff" stroke-width="6" stroke-linecap="round"/>
  <line x1="230" y1="246" x2="284" y2="246" stroke="#b7cbff" stroke-width="6" stroke-linecap="round"/>
  <line x1="230" y1="280" x2="276" y2="280" stroke="#b7cbff" stroke-width="6" stroke-linecap="round"/>

  <line x1="530" y1="212" x2="590" y2="212" stroke="#cfc0ff" stroke-width="6" stroke-linecap="round"/>
  <line x1="530" y1="246" x2="584" y2="246" stroke="#cfc0ff" stroke-width="6" stroke-linecap="round"/>
  <line x1="530" y1="280" x2="576" y2="280" stroke="#cfc0ff" stroke-width="6" stroke-linecap="round"/>

  <g transform="translate(400 270)">
    <path d="M0 -64 L52 -32 L52 8 Q52 66 0 82 Q-52 66 -52 8 L-52 -32 Z" fill="url(#accent)" opacity="0.15"/>
    <path d="M0 -64 L52 -32 L52 8 Q52 66 0 82 Q-52 66 -52 8 L-52 -32 Z" fill="none" stroke="url(#accent)" stroke-width="3"/>
    <path d="M-18 6 L-4 22 L20 -6" stroke="#4b68e7" stroke-width="6" fill="none" stroke-linecap="round" stroke-linejoin="round"/>
  </g>

  <line x1="330" y1="250" x2="352" y2="250" stroke="#20b783"  stroke-width="4"/>
  <line x1="448" y1="250" x2="470" y2="250" stroke="#20b783" stroke-width="4"/>
  <line x1="330" y1="320" x2="352" y2="320" stroke="#ff6b6b"  stroke-width="4"/>

</svg>
