<svg xmlns="http://www.w3.org/2000/svg" xmlns:xlink="http://www.w3.org/1999/xlink" viewBox="0 0 700 500"><defs><clipPath id="freepik--clip-path--inject-16"><rect x="237.54" y="113.29" width="209.94" height="209.94" rx="9.75" style="fill:#263238;stroke:#263238;stroke-linecap:round;stroke-linejoin:round;stroke-width:0.75px"></rect></clipPath><clipPath id="freepik--clip-path-2--inject-16"><rect x="430.66" y="121.3" width="11.57" height="11.57" rx="2.09" style="fill:#92E3A9;stroke:#263238;stroke-linecap:round;stroke-linejoin:round;stroke-width:0.75px"></rect></clipPath><clipPath id="freepik--clip-path-3--inject-16"><rect x="402.17" y="121.3" width="11.57" height="11.57" rx="2.09" style="fill:#92E3A9;stroke:#263238;stroke-linecap:round;stroke-linejoin:round;stroke-width:0.75px"></rect></clipPath><clipPath id="freepik--clip-path-4--inject-16"><path d="M502.67,389.51s-2.52-42.76-7.46-83.92c-3-24.69-7.92-49.15-9-67.43-1.49-23.91,27.71-17.27,53.13-18.33s50.11-4.36,51.87,17.86,4.19,150.41,4.19,150.41S547.19,401,502.67,389.51Z" style="fill:#92E3A9;stroke:#263238;stroke-linecap:round;stroke-linejoin:round;stroke-width:0.75px"></path></clipPath><clipPath id="freepik--clip-path-5--inject-16"><path d="M567.17,219.09s24.76,1.47,24.62,9.08c0,0,12.4,5.28,13.06,11.24s52.95,62,43.89,78.26c-7.92,14.2-39.86,40.62-39.86,40.62s-3.06-6.86-6.51-14.87c0,0,14-30.57,20.43-33.71L589.16,267" style="fill:#92E3A9;stroke:#263238;stroke-linecap:round;stroke-linejoin:round;stroke-width:0.75px"></path></clipPath><clipPath id="freepik--clip-path-6--inject-16"><path d="M496.88,221.7s-9.38-.4-15.35,16.46c0,0-7.06,4.12-21.43,35.48,0,0-2.47-3.31-7.78-12.38-4.64-7.92-11.72-18.15-17.56-33.12,0,0-4.71,5.79-14.78,5.46,0,0,21.83,73.75,37.12,73.75,16.86,0,35.42-39.2,35.42-39.2" style="fill:#92E3A9"></path></clipPath><clipPath id="freepik--clip-path-7--inject-16"><path d="M543.91,192.83s2.57,25.48,8.25,28.55c0,0-.91,9.73-17.5,9.73s-16.6-13.72-16.6-13.72Z" style="fill:#fff;stroke:#263238;stroke-linecap:round;stroke-linejoin:round;stroke-width:0.75px"></path></clipPath><clipPath id="freepik--clip-path-8--inject-16"><path d="M504.21,165.54s-15.11-1.45-11.79-13.64,15.93-13.52,15.93-13.52-2.55,8.75,12.42,7,31.14-3.18,31.8,11.93a31.86,31.86,0,0,1-4,28.49c-9.81,14-18.82,2.67-18.82,2.67L522,171.77l-14.4-3.05Z" style="fill:#263238;stroke:#263238;stroke-miterlimit:10;stroke-width:0.75px"></path></clipPath><clipPath id="freepik--clip-path-9--inject-16"><rect x="266.31" y="235.27" width="126.36" height="18.14" rx="4.42" style="fill:#92E3A9;stroke:#263238;stroke-linecap:round;stroke-linejoin:round;stroke-width:0.75px"></rect></clipPath><clipPath id="freepik--clip-path-10--inject-16"><path d="M163.24,338.2l-5.37,15.72s11.47,12.2,21.45,13.13l4.07,4.78,4.44-5.34-1.11-6.84-1.79-2.89-1.54-.5,3.15-8.63L176.5,334h-9.75Z" style="fill:#fff;stroke:#263238;stroke-linecap:round;stroke-linejoin:round;stroke-width:0.75px"></path></clipPath><clipPath id="freepik--clip-path-11--inject-16"><rect x="272.44" y="269.58" width="126.36" height="18.14" rx="4.42" style="fill:#fff;stroke:#263238;stroke-linecap:round;stroke-linejoin:round;stroke-width:0.75px"></rect></clipPath></defs><g id="freepik--background-simple--inject-16"><path d="M532.56,446.19c33.09-63.68,103.22-209.5,73.26-257-29.15-46.29-72.84-17.21-127.33-45.51S454.56,20.41,358.75,19.05c-94.08-1.34-106.48,154.68-143.47,170.09S90.78,142.33,71.93,232c-14.67,69.74,59.6,172.18,93.3,214.23Z" style="fill:#92E3A9"></path><path d="M532.56,446.19c33.09-63.68,103.22-209.5,73.26-257-29.15-46.29-72.84-17.21-127.33-45.51S454.56,20.41,358.75,19.05c-94.08-1.34-106.48,154.68-143.47,170.09S90.78,142.33,71.93,232c-14.67,69.74,59.6,172.18,93.3,214.23Z" style="fill:#fff;opacity:0.7000000000000001"></path></g><g id="freepik--Shadow--inject-16"><path d="M596.77,446.19H85.86c-6.53,2.93-11.91,6.6-7.15,9.53,9.47,5.84,72.42-3.9,58.14,19.46s142.74-5.19,159.61-4.54,29.2,13.75,55.15,13.75,28.08-16.78,44.86-16.78,136,20.34,186.7,0C605.54,458.64,604.7,451.44,596.77,446.19Z" style="fill:#858585"></path><path d="M596.77,446.19H85.86c-6.53,2.93-11.91,6.6-7.15,9.53,9.47,5.84,72.42-3.9,58.14,19.46s142.74-5.19,159.61-4.54,29.2,13.75,55.15,13.75,28.08-16.78,44.86-16.78,136,20.34,186.7,0C605.54,458.64,604.7,451.44,596.77,446.19Z" style="fill:#fff;opacity:0.6000000000000001"></path></g><g id="freepik--Table--inject-16"><line x1="71.96" y1="446.19" x2="600.47" y2="446.19" style="fill:#263238;stroke:#263238;stroke-linecap:round;stroke-linejoin:round;stroke-width:0.75px"></line></g><g id="freepik--Cloud--inject-16"><path d="M426.82,84.71h31.47" style="fill:none;stroke:#263238;stroke-linecap:round;stroke-linejoin:round;stroke-width:0.75px"></path><path d="M421.09,84.71h2.81" style="fill:none;stroke:#263238;stroke-linecap:round;stroke-linejoin:round;stroke-width:0.75px"></path><path d="M416.62,37.14a23.79,23.79,0,0,0,0,47.57" style="fill:none;stroke:#263238;stroke-linecap:round;stroke-linejoin:round;stroke-width:0.75px"></path><path d="M445.61,16.92A23.77,23.77,0,0,0,422,37.78" style="fill:none;stroke:#263238;stroke-linecap:round;stroke-linejoin:round;stroke-width:0.75px"></path><path d="M468,84.71a21,21,0,0,0,1.29-42c.06-.66.11-1.33.11-2a23.8,23.8,0,0,0-18-23.07" style="fill:none;stroke:#263238;stroke-linecap:round;stroke-linejoin:round;stroke-width:0.75px"></path><path d="M509.38,114.53a15.93,15.93,0,0,0,1.39-2.4l3.11.05a18.47,18.47,0,0,0,1-3.78l-2.72-1.51c0-.45.07-.92.07-1.38s0-.93-.07-1.39l2.72-1.51a18.47,18.47,0,0,0-1-3.78l-3.11.06a15.55,15.55,0,0,0-1.39-2.41l1.6-2.66a19,19,0,0,0-2.76-2.77l-2.67,1.6a15.45,15.45,0,0,0-2.4-1.39l.05-3.11a19,19,0,0,0-3.77-1l-1.51,2.72" style="fill:none;stroke:#263238;stroke-linecap:round;stroke-linejoin:round;stroke-width:0.75px"></path><path d="M482.86,113.24c.25.45.52.87.81,1.29l-1.59,2.66a18.07,18.07,0,0,0,2.76,2.77l2.66-1.6a15.55,15.55,0,0,0,2.41,1.39l-.05,3.11a18.86,18.86,0,0,0,3.77,1l1.51-2.72c.46,0,.92.06,1.39.06s.93,0,1.39-.06l1.51,2.72a19,19,0,0,0,3.77-1l-.05-3.11a15.45,15.45,0,0,0,2.4-1.39l2.67,1.6a18.53,18.53,0,0,0,2.76-2.77" style="fill:none;stroke:#263238;stroke-linecap:round;stroke-linejoin:round;stroke-width:0.75px"></path><path d="M480.4,98.85l-1.22,0a18.49,18.49,0,0,0-1,3.78l2.72,1.51c0,.46-.06.92-.06,1.39s0,.93.06,1.38l-2.72,1.51a18.49,18.49,0,0,0,1,3.78l3.1-.05" style="fill:none;stroke:#263238;stroke-linecap:round;stroke-linejoin:round;stroke-width:0.75px"></path><path d="M495.14,89.86l-1.51-2.72a18.86,18.86,0,0,0-3.77,1l.05,3.11a15.55,15.55,0,0,0-2.41,1.39l-2.66-1.6a18.53,18.53,0,0,0-2.76,2.77l1.59,2.66a16.4,16.4,0,0,0-1.39,2.41" style="fill:none;stroke:#263238;stroke-linecap:round;stroke-linejoin:round;stroke-width:0.75px"></path><path d="M494.49,115.42a10.12,10.12,0,0,1,2-20" style="fill:none;stroke:#263238;stroke-linecap:round;stroke-linejoin:round;stroke-width:0.75px"></path><path d="M506.37,107.88a10.13,10.13,0,0,1-9.84,7.75" style="fill:none;stroke:#263238;stroke-linecap:round;stroke-linejoin:round;stroke-width:0.75px"></path><path d="M506.61,106.39c0,.24-.05.47-.09.71" style="fill:none;stroke:#263238;stroke-linecap:round;stroke-linejoin:round;stroke-width:0.75px"></path><path d="M500.22,96.08a10.13,10.13,0,0,1,6.43,9.43" style="fill:none;stroke:#263238;stroke-linecap:round;stroke-linejoin:round;stroke-width:0.75px"></path><path d="M523.77,83.82a8.37,8.37,0,0,0,.77-1.33l1.72,0a9.76,9.76,0,0,0,.56-2.09l-1.5-.83c0-.26,0-.51,0-.77s0-.52,0-.77l1.5-.83a9.6,9.6,0,0,0-.56-2.09l-1.72,0a8.37,8.37,0,0,0-.77-1.33l.89-1.48a11.06,11.06,0,0,0-1.53-1.53l-1.48.89a8,8,0,0,0-1.33-.77l0-1.72a9.6,9.6,0,0,0-2.09-.56l-.83,1.5" style="fill:none;stroke:#263238;stroke-linecap:round;stroke-linejoin:round;stroke-width:0.75px"></path><path d="M509.1,83.11c.14.24.29.48.45.71l-.88,1.48a9.93,9.93,0,0,0,1.52,1.52l1.48-.88a9.21,9.21,0,0,0,1.33.77l0,1.72a9.76,9.76,0,0,0,2.09.56l.83-1.51a6.62,6.62,0,0,0,.77,0,6.51,6.51,0,0,0,.77,0l.83,1.51a9.6,9.6,0,0,0,2.09-.56l0-1.72a8.7,8.7,0,0,0,1.33-.77l1.48.88a10.47,10.47,0,0,0,1.53-1.52" style="fill:none;stroke:#263238;stroke-linecap:round;stroke-linejoin:round;stroke-width:0.75px"></path><path d="M507.74,75.15h-.68a9.6,9.6,0,0,0-.56,2.09l1.51.83a6.51,6.51,0,0,0,0,.77,6.62,6.62,0,0,0,0,.77l-1.51.83a9.76,9.76,0,0,0,.56,2.09l1.72,0" style="fill:none;stroke:#263238;stroke-linecap:round;stroke-linejoin:round;stroke-width:0.75px"></path><path d="M515.89,70.17l-.83-1.5a9.76,9.76,0,0,0-2.09.56L513,71a8.37,8.37,0,0,0-1.33.77l-1.48-.89a10.47,10.47,0,0,0-1.52,1.53l.88,1.48a9.21,9.21,0,0,0-.77,1.33" style="fill:none;stroke:#263238;stroke-linecap:round;stroke-linejoin:round;stroke-width:0.75px"></path><path d="M245.78,83.8h23.07" style="fill:none;stroke:#263238;stroke-linecap:round;stroke-linejoin:round;stroke-width:0.75px"></path><path d="M241.58,83.8h2.06" style="fill:none;stroke:#263238;stroke-linecap:round;stroke-linejoin:round;stroke-width:0.75px"></path><path d="M238.3,48.94a17.43,17.43,0,0,0,0,34.86" style="fill:none;stroke:#263238;stroke-linecap:round;stroke-linejoin:round;stroke-width:0.75px"></path><path d="M259.56,34.12a17.43,17.43,0,0,0-17.29,15.29" style="fill:none;stroke:#263238;stroke-linecap:round;stroke-linejoin:round;stroke-width:0.75px"></path><path d="M276,83.8a15.4,15.4,0,0,0,1-30.78c0-.49.08-1,.08-1.47a17.46,17.46,0,0,0-13.17-16.91" style="fill:none;stroke:#263238;stroke-linecap:round;stroke-linejoin:round;stroke-width:0.75px"></path><path d="M217.4,115.11a15.49,15.49,0,0,0,1.48-2.56l3.31.06a19.84,19.84,0,0,0,1.08-4l-2.9-1.61a14.19,14.19,0,0,0,.07-1.47,14.52,14.52,0,0,0-.07-1.48l2.9-1.61a19.92,19.92,0,0,0-1.08-4l-3.31,0a15.91,15.91,0,0,0-1.48-2.56l1.7-2.83a20,20,0,0,0-2.94-2.95l-2.83,1.71a15.91,15.91,0,0,0-2.56-1.48l0-3.31a19.92,19.92,0,0,0-4-1.08l-1.61,2.9" style="fill:none;stroke:#263238;stroke-linecap:round;stroke-linejoin:round;stroke-width:0.75px"></path><path d="M189.17,113.74c.27.47.56.93.87,1.37l-1.7,2.84a19.46,19.46,0,0,0,2.94,2.94l2.84-1.7a17.05,17.05,0,0,0,2.56,1.48l-.06,3.31a19.19,19.19,0,0,0,4,1.07l1.6-2.89c.49,0,1,.07,1.48.07s1,0,1.48-.07l1.61,2.89a19.27,19.27,0,0,0,4-1.07l0-3.31a17.56,17.56,0,0,0,2.56-1.48l2.83,1.7A19.46,19.46,0,0,0,219.1,118" style="fill:none;stroke:#263238;stroke-linecap:round;stroke-linejoin:round;stroke-width:0.75px"></path><path d="M186.56,98.43l-1.31,0a19.27,19.27,0,0,0-1.07,4l2.89,1.61c0,.49-.07,1-.07,1.48s0,1,.07,1.47l-2.89,1.61a19.19,19.19,0,0,0,1.07,4l3.31-.06" style="fill:none;stroke:#263238;stroke-linecap:round;stroke-linejoin:round;stroke-width:0.75px"></path><path d="M202.24,88.86l-1.6-2.9a19.84,19.84,0,0,0-4,1.08l.06,3.31a15.49,15.49,0,0,0-2.56,1.48l-2.84-1.71a20,20,0,0,0-2.94,2.95L190,95.9a17.56,17.56,0,0,0-1.48,2.56" style="fill:none;stroke:#263238;stroke-linecap:round;stroke-linejoin:round;stroke-width:0.75px"></path><path d="M201.55,116.06a10.78,10.78,0,0,1,2.17-21.33" style="fill:none;stroke:#263238;stroke-linecap:round;stroke-linejoin:round;stroke-width:0.75px"></path><path d="M214.2,108a10.79,10.79,0,0,1-10.48,8.25" style="fill:none;stroke:#263238;stroke-linecap:round;stroke-linejoin:round;stroke-width:0.75px"></path><path d="M214.46,106.45c0,.25-.06.5-.1.75" style="fill:none;stroke:#263238;stroke-linecap:round;stroke-linejoin:round;stroke-width:0.75px"></path><path d="M207.65,95.47a10.78,10.78,0,0,1,6.85,10" style="fill:none;stroke:#263238;stroke-linecap:round;stroke-linejoin:round;stroke-width:0.75px"></path><path d="M176.19,104.58a12.61,12.61,0,0,0,1.11-1.92l2.49,0a15.09,15.09,0,0,0,.81-3l-2.18-1.21c0-.36.05-.73.05-1.11s0-.74-.05-1.11L180.6,95a15.18,15.18,0,0,0-.81-3l-2.49,0a12.15,12.15,0,0,0-1.11-1.92L177.47,88a14.83,14.83,0,0,0-2.21-2.2l-2.13,1.27A13.61,13.61,0,0,0,171.2,86l0-2.48a14.53,14.53,0,0,0-3-.81L167,84.85" style="fill:none;stroke:#263238;stroke-linecap:round;stroke-linejoin:round;stroke-width:0.75px"></path><path d="M155,103.55c.2.35.42.7.65,1l-1.28,2.13a15.39,15.39,0,0,0,2.21,2.21l2.13-1.28a12.27,12.27,0,0,0,1.92,1.11l0,2.49a14.62,14.62,0,0,0,3,.81l1.21-2.18a10.18,10.18,0,0,0,1.11.06,10.32,10.32,0,0,0,1.11-.06l1.21,2.18a14.53,14.53,0,0,0,3-.81l0-2.49a11.92,11.92,0,0,0,1.93-1.11l2.13,1.28a15.39,15.39,0,0,0,2.21-2.21" style="fill:none;stroke:#263238;stroke-linecap:round;stroke-linejoin:round;stroke-width:0.75px"></path><path d="M153,92h-1a15.18,15.18,0,0,0-.81,3l2.18,1.21c0,.37-.05.74-.05,1.11s0,.75.05,1.11l-2.18,1.21a15.09,15.09,0,0,0,.81,3l2.49,0" style="fill:none;stroke:#263238;stroke-linecap:round;stroke-linejoin:round;stroke-width:0.75px"></path><path d="M164.8,84.85l-1.21-2.17a14.62,14.62,0,0,0-3,.81l0,2.48a14.08,14.08,0,0,0-1.92,1.11l-2.13-1.27a14.83,14.83,0,0,0-2.21,2.2l1.28,2.14a11.42,11.42,0,0,0-1.11,1.92" style="fill:none;stroke:#263238;stroke-linecap:round;stroke-linejoin:round;stroke-width:0.75px"></path><path d="M164.8,102.78a5.53,5.53,0,0,1,1.11-10.94" style="fill:none;stroke:#263238;stroke-linecap:round;stroke-linejoin:round;stroke-width:0.75px"></path><path d="M171.28,98.66a5.53,5.53,0,0,1-5.37,4.23" style="fill:none;stroke:#263238;stroke-linecap:round;stroke-linejoin:round;stroke-width:0.75px"></path><path d="M167.93,92.22a5.51,5.51,0,0,1,3.5,5.14" style="fill:none;stroke:#263238;stroke-linecap:round;stroke-linejoin:round;stroke-width:0.75px"></path></g><g id="freepik--Plant--inject-16"><path d="M349.94,408.68s-32.77-18.95-28.4-24.22,19.39,9.47,19.39,9.47-28.95-36.32-23.76-40,19.93,20.34,19.93,20.34-17.75-40.06-10.92-41.19,17.75,34.63,17.75,34.63-4.64-25.39,0-25.94S351.85,382,351.85,382s-.23-19.19,3.84-19.06S361.41,406,349.94,408.68Z" style="fill:#92E3A9"></path><path d="M349.94,408.68s-32.77-18.95-28.4-24.22,19.39,9.47,19.39,9.47-28.95-36.32-23.76-40,19.93,20.34,19.93,20.34-17.75-40.06-10.92-41.19,17.75,34.63,17.75,34.63-4.64-25.39,0-25.94S351.85,382,351.85,382s-.23-19.19,3.84-19.06S361.41,406,349.94,408.68Z" style="fill:#fff;opacity:0.4"></path><path d="M355.07,407.08s26-15,22.5-19.18-15.36,7.51-15.36,7.51,22.93-28.77,18.82-31.69-15.79,16.11-15.79,16.11,14.06-31.72,8.65-32.62-14.06,27.43-14.06,27.43,3.68-20.11,0-20.54S353.56,386,353.56,386s.18-15.19-3-15.09S346,404.92,355.07,407.08Z" style="fill:#92E3A9"></path><path d="M355.07,407.08s26-15,22.5-19.18-15.36,7.51-15.36,7.51,22.93-28.77,18.82-31.69-15.79,16.11-15.79,16.11,14.06-31.72,8.65-32.62-14.06,27.43-14.06,27.43,3.68-20.11,0-20.54S353.56,386,353.56,386s.18-15.19-3-15.09S346,404.92,355.07,407.08Z" style="opacity:0.2"></path><path d="M327.09,402v2a3.91,3.91,0,0,0,2.78,3.73l3,31.49a8.07,8.07,0,0,0,8,7.32h21.94a8.08,8.08,0,0,0,8-7.32l3-31.49a3.9,3.9,0,0,0,2.79-3.73v-2Z" style="fill:#263238"></path><path d="M330.37,413a3.27,3.27,0,0,0,2.78-.91l2.58-2.59a3.25,3.25,0,0,1,4.58,0l2.58,2.59a3.25,3.25,0,0,0,4.58,0l2.6-2.59a3.24,3.24,0,0,1,4.57,0l2.59,2.59a3.24,3.24,0,0,0,4.57,0l2.6-2.59a3.25,3.25,0,0,1,4.58,0l2.58,2.59a3.09,3.09,0,0,0,1.76.9" style="fill:none;stroke:#7f7f7f;stroke-linecap:round;stroke-linejoin:round;stroke-width:0.75px"></path></g><g id="freepik--Interface--inject-16"><rect x="237.54" y="113.29" width="209.94" height="209.94" rx="9.75" style="fill:#263238"></rect><g style="clip-path:url(#freepik--clip-path--inject-16)"><rect x="237.54" y="113.29" width="209.94" height="209.94" rx="9.75" style="fill:#fff;opacity:0.8"></rect></g><rect x="237.54" y="113.29" width="209.94" height="209.94" rx="9.75" style="fill:none;stroke:#263238;stroke-linecap:round;stroke-linejoin:round;stroke-width:0.75px"></rect><rect x="242.79" y="138.51" width="199.44" height="179.47" rx="9.75" style="fill:#263238"></rect><rect x="242.79" y="138.51" width="199.44" height="179.47" rx="9.75" style="fill:none;stroke:#263238;stroke-linecap:round;stroke-linejoin:round;stroke-width:0.75px"></rect><rect x="430.66" y="121.3" width="11.57" height="11.57" rx="2.09" style="fill:#92E3A9"></rect><g style="clip-path:url(#freepik--clip-path-2--inject-16)"><rect x="430.66" y="121.3" width="11.57" height="11.57" rx="2.09" style="opacity:0.30000000000000004"></rect></g><rect x="430.66" y="121.3" width="11.57" height="11.57" rx="2.09" style="fill:none;stroke:#263238;stroke-linecap:round;stroke-linejoin:round;stroke-width:0.75px"></rect><rect x="416.42" y="121.3" width="11.57" height="11.57" rx="2.09" style="fill:#92E3A9;stroke:#263238;stroke-linecap:round;stroke-linejoin:round;stroke-width:0.75px"></rect><rect x="402.17" y="121.3" width="11.57" height="11.57" rx="2.09" style="fill:#92E3A9"></rect><g style="clip-path:url(#freepik--clip-path-3--inject-16)"><rect x="402.17" y="121.3" width="11.57" height="11.57" rx="2.09" style="fill:#fff;opacity:0.7000000000000001"></rect></g><rect x="402.17" y="121.3" width="11.57" height="11.57" rx="2.09" style="fill:none;stroke:#263238;stroke-linecap:round;stroke-linejoin:round;stroke-width:0.75px"></rect><path d="M243.23,129.17v-4.9a2.22,2.22,0,1,1,4.44,0v4.9a2.22,2.22,0,1,1-4.44,0Zm3,.09v-5.08c0-.67-.3-.92-.76-.92s-.76.25-.76.92v5.08c0,.67.29.92.76.92S246.21,129.93,246.21,129.26Z" style="fill:#263238"></path><path d="M248.66,122.06h2.15c1.47,0,2.19.81,2.19,2.31v.91c0,1.49-.72,2.31-2.19,2.31h-.69v3.79h-1.46Zm2.15,4.19c.47,0,.72-.21.72-.87v-1.11c0-.66-.25-.88-.72-.88h-.69v2.86Z" style="fill:#263238"></path><path d="M253.8,122.06h4v1.33h-2.53v2.47h2v1.33h-2v2.86h2.53v1.33h-4Z" style="fill:#263238"></path><path d="M258.63,122.06h1.84l1.42,5.58h0v-5.58h1.3v9.32h-1.5l-1.76-6.8h0v6.8h-1.31Z" style="fill:#263238"></path><path d="M266.19,129.17v-.53h1.39v.64c0,.66.29.9.76.9s.75-.24.75-.93-.29-1.27-1.25-2.1c-1.22-1.08-1.62-1.84-1.62-2.9a2,2,0,0,1,2.18-2.32c1.43,0,2.13.85,2.13,2.34v.39h-1.38v-.48c0-.67-.27-.92-.73-.92s-.74.25-.74.89.31,1.17,1.27,2c1.22,1.08,1.61,1.82,1.61,3a2.07,2.07,0,0,1-2.21,2.37C266.91,131.51,266.19,130.66,266.19,129.17Z" style="fill:#263238"></path><path d="M271.29,129.17v-4.9a2.23,2.23,0,1,1,4.45,0v4.9a2.23,2.23,0,1,1-4.45,0Zm3,.09v-5.08c0-.67-.29-.92-.75-.92s-.76.25-.76.92v5.08c0,.67.29.92.76.92S274.27,129.93,274.27,129.26Z" style="fill:#263238"></path><path d="M276.67,129.17v-7.11h1.47v7.22c0,.66.28.9.74.9s.75-.24.75-.9v-7.22H281v7.11a2,2,0,0,1-2.19,2.34C277.42,131.51,276.67,130.66,276.67,129.17Z" style="fill:#263238"></path><path d="M282.08,122.06h2.17c1.51,0,2.16.71,2.16,2.14v.58c0,1-.3,1.57-1,1.83v0c.73.23,1,.92,1,2v1.64a2.69,2.69,0,0,0,.16,1.13H285.1a2.84,2.84,0,0,1-.14-1.15v-1.7c0-.86-.25-1.14-.91-1.14h-.51v4h-1.46Zm2,4c.55,0,.88-.25.88-1v-.72c0-.66-.22-1-.74-1h-.67v2.67Z" style="fill:#263238"></path><path d="M287.35,129.22v-5a2.16,2.16,0,1,1,4.31,0v1h-1.38v-1.07c0-.62-.3-.87-.73-.87s-.74.25-.74.87v5.2c0,.61.3.85.74.85s.73-.24.73-.85v-1.42h1.38v1.31a2.16,2.16,0,1,1-4.31,0Z" style="fill:#263238"></path><path d="M292.54,122.06h4v1.33H294v2.47h2v1.33h-2v2.86h2.52v1.33h-4Z" style="fill:#263238"></path></g><g id="freepik--character-4--inject-16"><path d="M503.26,383.26s1.67,11,1.27,14.65c-1.32,12.27-7.61,24.44-10.27,48.28H596.43s.93-43.48-3.08-62.93Z" style="fill:#858585;stroke:#263238;stroke-linecap:round;stroke-linejoin:round"></path><path d="M502.67,389.51s-2.52-42.76-7.46-83.92c-3-24.69-7.92-49.15-9-67.43-1.49-23.91,27.71-17.27,53.13-18.33s50.11-4.36,51.87,17.86,4.19,150.41,4.19,150.41S547.19,401,502.67,389.51Z" style="fill:#92E3A9"></path><g style="clip-path:url(#freepik--clip-path-4--inject-16)"><g style="opacity:0.2"><path d="M629.39,312.67l9.52-3-7.44-.65,4.15-6.72c-1,1.92-3.61,2.46-5.65,1.76s-3.61-2.31-5.09-3.87c-6.79-7.11-13.65-14.32-18.5-22.87S598.82,258.56,601,249l-3.47,8.64-5.29-14.77a13.77,13.77,0,0,1-4.14,13c-1.41,1.26-3.15,2.3-3.89,4.07a4.38,4.38,0,0,0-.19,2.51c13.28,71-29.9,71.41-45,67.5-13.57-3.5-26-20.59-26.51-34.42a2.26,2.26,0,0,1,3.36-2c25.51,14.09,47.39,17.69,39.8,11.86-13.51-2.89-49.48-17.64-55.48-49.79a4.32,4.32,0,0,0-5.26-3.41,83.74,83.74,0,0,1-28.24,35.15L469,292.8c-2.76,2.32-7.82.19-8.08-3.41l-2.87,14.74-7-.22.07.06a4.71,4.71,0,0,1,1,1.56l.43.3c.31.23.58.45.85.67a16.11,16.11,0,0,0,13.07-2.39c5.28-3.59,8.62-9.32,11.91-14.79s7-11.09,12.54-14.17q10.08,47.36,20.17,94.7c1.08,5.09,2.24,10.35,5.3,14.57,6.35,8.74,18.62,10.33,29.42,10.23a189.72,189.72,0,0,0,47.46-6.48L592.16,272,623,310.3q-6.78,9.34-13.54,18.7a37.43,37.43,0,0,1,27.27-14.31A7.7,7.7,0,0,0,629.39,312.67Z"></path></g></g><path d="M502.67,389.51s-2.52-42.76-7.46-83.92c-3-24.69-7.92-49.15-9-67.43-1.49-23.91,27.71-17.27,53.13-18.33s50.11-4.36,51.87,17.86,4.19,150.41,4.19,150.41S547.19,401,502.67,389.51Z" style="fill:none;stroke:#263238;stroke-linecap:round;stroke-linejoin:round;stroke-width:0.75px"></path><path d="M544.22,446.19a47.31,47.31,0,0,0-3.32-6.73c-6.24-8.31-5.46-15.39-7.75-23.13-.7-2.37-5.49-8.23-5.49-8.23" style="fill:none;stroke:#263238;stroke-linecap:round;stroke-linejoin:round;stroke-width:0.75px"></path><polygon points="606.45 340.04 599.02 348.86 601.31 364.32 612.63 352.41 606.45 340.04" style="fill:#fff;stroke:#263238;stroke-linecap:round;stroke-linejoin:round;stroke-width:0.75px"></polygon><path d="M600.38,349.5c-.31-1.5-.48-5.33-1.93-5.83-2.66-.92-7.78,3.92-9.4,6.22-.76,1.09-2.4,3.41-2.38,4.73,0,.68.6,2.29,1.26,2.4,1.17.18,2.49-2.52,3.39-3.28a46.15,46.15,0,0,1,5.35-3.05s-3.15,4.57-4.43,5.62c-1.92,1.57-9.88,6-4.82,8.64,0,0-1.95,2.87,1.1,3.62s7.92-3.46,7.92-3.46a18.62,18.62,0,0,1-3.1,3.35c-1.94,1.73-4.8,1.35-4.12,2.57,1,1.89,3.65,2.06,6.42,1.13a10.66,10.66,0,0,0,6.62-5.29C604.76,362.72,601.27,353.78,600.38,349.5Z" style="fill:#fff;stroke:#1a2e35;stroke-linecap:round;stroke-linejoin:round;stroke-width:0.75px"></path><path d="M589.51,364.32a55.46,55.46,0,0,0,6.28-3.69,11.8,11.8,0,0,0,3.23-3.8" style="fill:none;stroke:#1a2e35;stroke-linecap:round;stroke-linejoin:round;stroke-width:0.75px"></path><path d="M567.17,219.09s24.76,1.47,24.62,9.08c0,0,12.4,5.28,13.06,11.24s52.95,62,43.89,78.26c-7.92,14.2-39.86,40.62-39.86,40.62s-3.06-6.86-6.51-14.87c0,0,14-30.57,20.43-33.71L589.16,267" style="fill:#92E3A9"></path><g style="clip-path:url(#freepik--clip-path-5--inject-16)"><g style="opacity:0.2"><path d="M495.38,252a83.57,83.57,0,0,1-28.25,35.15l2.39,5.46c-2.76,2.33-7.82.19-8.08-3.4Q460,296.59,458.57,304l-9.16-.29c4.48,4.55,12.36,3.87,17.64.28s8.61-9.33,11.91-14.79S485.9,278.07,491.5,275q10.08,47.34,20.17,94.69c1.08,5.1,2.24,10.36,5.3,14.58,6.34,8.74,18.62,10.33,29.42,10.23A190.18,190.18,0,0,0,593.85,388q-.6-58.1-1.19-116.19l30.79,38.31-15,20.79a37.32,37.32,0,0,1,28.77-16.39,7.67,7.67,0,0,0-7.29-2l9.52-3.05-7.44-.64,4.15-6.73c-1,1.92-3.61,2.47-5.65,1.77s-3.61-2.32-5.1-3.88c-6.78-7.11-13.64-14.31-18.49-22.86s-7.56-18.72-5.4-28.31q-1.72,4.32-3.46,8.63l-5.29-14.76a13.76,13.76,0,0,1-4.15,13c-1.35,1.22-3,2.23-3.79,3.87-1.06,2.21-.22,4.81.49,7.16,4.39,14.66,2.31,31.48-6.88,43.71s-25.74,19-40.56,15.16-26.34-18.87-24.76-34.09a171.48,171.48,0,0,0,49.3,10.16c-14.12-3-28.33-7.1-40.24-15.28S500.85,265.33,500,250.92Z"></path></g></g><path d="M567.17,219.09s24.76,1.47,24.62,9.08c0,0,12.4,5.28,13.06,11.24s52.95,62,43.89,78.26c-7.92,14.2-39.86,40.62-39.86,40.62s-3.06-6.86-6.51-14.87c0,0,14-30.57,20.43-33.71L589.16,267" style="fill:none;stroke:#263238;stroke-linecap:round;stroke-linejoin:round;stroke-width:0.75px"></path><path d="M639.77,308.53c-5.51-3.88-13.33.2-13.33-2.35s9.41-2.78,8.63-5.41" style="fill:none;stroke:#263238;stroke-linecap:round;stroke-linejoin:round;stroke-width:0.75px"></path><path d="M596.59,255.71a44.18,44.18,0,0,0,2.61-15" style="fill:none;stroke:#263238;stroke-linecap:round;stroke-linejoin:round;stroke-width:0.75px"></path><path d="M592.57,237.44c.29,5.81.58,14.07.32,20.37a1.35,1.35,0,0,0,2.57.62" style="fill:none;stroke:#263238;stroke-linecap:round;stroke-linejoin:round;stroke-width:0.75px"></path><path d="M592.14,230.33s.09,1.24.22,3.27" style="fill:none;stroke:#263238;stroke-linecap:round;stroke-linejoin:round;stroke-width:0.75px"></path><path d="M479.15,247s-1.48,10.29,0,17.64" style="fill:none;stroke:#263238;stroke-linecap:round;stroke-linejoin:round;stroke-width:0.75px"></path><path d="M435.89,236.7l-5.67-16.32S428.45,209.21,427,207a33.34,33.34,0,0,0-5.29-5.29,38.85,38.85,0,0,0-4.68-5.44c-1.93-1.62-13.25-7.5-14.13-7.06s-2.28,3.09,5.07,7.2a18.8,18.8,0,0,0-7.28,1c-3.23,1.33-5.44,1.69-4,3.09s2.57,2.06,7.79.66a40.9,40.9,0,0,0,6.61.22l1.62,1.91a3.18,3.18,0,0,0-4,1.25c-1.47,2.35-3.16,5.29-2.42,7,0,0-5.66-2.94-7.21-.51s3.24,4.63,5.15,6.1,6.54,5.44,6.54,5.44S414.05,230,421,232.73c0,0,2.67,3.09,1.91,6Z" style="fill:#fff;stroke:#263238;stroke-linecap:round;stroke-linejoin:round;stroke-width:0.75px"></path><polyline points="411.55 198.41 413.98 200.39 416.69 205.1 418.53 211.27" style="fill:none;stroke:#263238;stroke-linecap:round;stroke-linejoin:round;stroke-width:0.75px"></polyline><path d="M420.08,211.27s-3.86,4.63-6.6,5.29A25.71,25.71,0,0,1,410,214.8c-.49-.43-1.23-1.26-2.72-2.45" style="fill:none;stroke:#263238;stroke-linecap:round;stroke-linejoin:round;stroke-width:0.75px"></path><path d="M415.81,210.9l-.35-1.25a8.21,8.21,0,0,1-3.47,0l-.88,1.25A16.7,16.7,0,0,1,415.81,210.9Z" style="fill:none;stroke:#263238;stroke-linecap:round;stroke-linejoin:round;stroke-width:0.75px"></path><path d="M411.92,205.68a6.32,6.32,0,0,1,.51,3.17" style="fill:none;stroke:#263238;stroke-linecap:round;stroke-linejoin:round;stroke-width:0.75px"></path><path d="M409.64,209.65a7.39,7.39,0,0,1,2.54,6.33" style="fill:none;stroke:#263238;stroke-linecap:round;stroke-linejoin:round;stroke-width:0.75px"></path><polyline points="414.19 204.51 415.81 206.27 415.81 208.26" style="fill:none;stroke:#263238;stroke-linecap:round;stroke-linejoin:round;stroke-width:0.75px"></polyline><path d="M496.88,221.7s-9.38-.4-15.35,16.46c0,0-7.06,4.12-21.43,35.48,0,0-2.47-3.31-7.78-12.38-4.64-7.92-11.72-18.15-17.56-33.12,0,0-4.71,5.79-14.78,5.46,0,0,21.83,73.75,37.12,73.75,16.86,0,35.42-39.2,35.42-39.2" style="fill:#92E3A9"></path><g style="clip-path:url(#freepik--clip-path-6--inject-16)"><g style="opacity:0.2"><path d="M495.38,252a83.57,83.57,0,0,1-28.25,35.15l2.39,5.46c-2.76,2.33-7.82.19-8.08-3.4Q460,296.59,458.57,304l-9.16-.29c4.48,4.55,12.36,3.87,17.64.28s8.61-9.33,11.91-14.79S485.9,278.07,491.5,275q10.08,47.34,20.17,94.69c1.08,5.1,2.24,10.36,5.3,14.58,6.34,8.74,18.62,10.33,29.42,10.23A190.18,190.18,0,0,0,593.85,388q-.6-58.1-1.19-116.19l30.79,38.31-15,20.79a37.32,37.32,0,0,1,28.77-16.39,7.67,7.67,0,0,0-7.29-2l9.52-3.05-7.44-.64,4.15-6.73c-1,1.92-3.61,2.47-5.65,1.77s-3.61-2.32-5.1-3.88c-6.78-7.11-13.64-14.31-18.49-22.86s-7.56-18.72-5.4-28.31q-1.72,4.32-3.46,8.63l-5.29-14.76a13.76,13.76,0,0,1-4.15,13c-1.35,1.22-3,2.23-3.79,3.87-1.06,2.21-.22,4.81.49,7.16,4.39,14.66,2.31,31.48-6.88,43.71s-25.74,19-40.56,15.16-26.34-18.87-24.76-34.09a171.48,171.48,0,0,0,49.3,10.16c-14.12-3-28.33-7.1-40.24-15.28S500.85,265.33,500,250.92Z"></path></g></g><path d="M496.88,221.7s-9.38-.4-15.35,16.46c0,0-7.06,4.12-21.43,35.48,0,0-2.47-3.31-7.78-12.38-4.64-7.92-11.72-18.15-17.56-33.12,0,0-4.71,5.79-14.78,5.46,0,0,21.83,73.75,37.12,73.75,16.86,0,35.42-39.2,35.42-39.2" style="fill:none;stroke:#263238;stroke-linecap:round;stroke-linejoin:round;stroke-width:0.75px"></path><path d="M486.4,241.87c-.1-1.19-.18-2.43-.24-3.71" style="fill:none;stroke:#263238;stroke-linecap:round;stroke-linejoin:round;stroke-width:0.75px"></path><path d="M488,264.21c2.73-.3.35-5.91-1.1-17.22" style="fill:none;stroke:#263238;stroke-linecap:round;stroke-linejoin:round;stroke-width:0.75px"></path><path d="M481,243.26s2.28,13.32,4.9,18.72" style="fill:none;stroke:#263238;stroke-linecap:round;stroke-linejoin:round;stroke-width:0.75px"></path><path d="M543.91,192.83s2.57,25.48,8.25,28.55c0,0-.91,9.73-17.5,9.73s-16.6-13.72-16.6-13.72Z" style="fill:#fff"></path><g style="clip-path:url(#freepik--clip-path-7--inject-16)"><path d="M508.05,165.28s-2.69,16-2.25,19.37-.38,6.82.3,12.25,4.82,20.58,14.7,22.89C526,221,537.12,216,541.74,205.68c.32-.69,2.17-8.6,2.17-8.6s4.58,3.09,6.05-1.92,3.95-9.58.77-12.57-7.47,3.49-8.07,5.88-2.95-.32-2.95-.32-1.46-11-4.91-14,3-8.59-.28-12.44S516.75,158.77,508.05,165.28Z" style="fill:#263238;stroke:#263238;stroke-linecap:round;stroke-linejoin:round;stroke-width:0.75px"></path></g><path d="M543.91,192.83s2.57,25.48,8.25,28.55c0,0-.91,9.73-17.5,9.73s-16.6-13.72-16.6-13.72Z" style="fill:none;stroke:#263238;stroke-linecap:round;stroke-linejoin:round;stroke-width:0.75px"></path><path d="M504.21,165.54s-15.11-1.45-11.79-13.64,15.93-13.52,15.93-13.52-2.55,8.75,12.42,7,31.14-3.18,31.8,11.93a31.86,31.86,0,0,1-4,28.49c-9.81,14-18.82,2.67-18.82,2.67L522,171.77l-14.4-3.05Z" style="fill:#263238"></path><g style="clip-path:url(#freepik--clip-path-8--inject-16)"><path d="M526,157.37s17.88,2.07,26.62,0,11.13,21.6,11.13,21.6l-2.12,14.44-23.85,4.11-11-9.81L522.23,174Z" style="fill:#858585;stroke:#263238;stroke-miterlimit:10;stroke-width:0.75px"></path></g><path d="M504.21,165.54s-15.11-1.45-11.79-13.64,15.93-13.52,15.93-13.52-2.55,8.75,12.42,7,31.14-3.18,31.8,11.93a31.86,31.86,0,0,1-4,28.49c-9.81,14-18.82,2.67-18.82,2.67L522,171.77l-14.4-3.05Z" style="fill:none;stroke:#263238;stroke-miterlimit:10;stroke-width:0.75px"></path><path d="M502,163.57S498.55,179.72,499,183s-.59,6.86.08,12.29,3,25.8,14.77,24.23c11.56-1.53,27.46-11,28.87-20.39.12-.76.81-3,.81-3a5.34,5.34,0,0,0,6.65-3.56c1.82-5.06,4.81-9.7,1.17-12.63-3.79-3.06-8.78,3.66-9.53,6.08s-3.42-.26-3.42-.26-1.46-11-5.41-13.89,3.66-8.69-.06-12.47S512.3,156.86,502,163.57Z" style="fill:#fff;stroke:#263238;stroke-linecap:round;stroke-linejoin:round;stroke-width:0.75px"></path><path d="M508.07,182.8c0,3-5.6,8.16-4.94,10.81.36,1.45,4.13,2.16,4.91,3.44a2.81,2.81,0,0,1,.31,1.22" style="fill:#fff;stroke:#263238;stroke-linecap:round;stroke-linejoin:round;stroke-width:0.75px"></path><path d="M502.72,184.56c-.08,1.16-.61,2.06-1.19,2s-1-1-.89-2.17.62-2.06,1.19-2S502.8,183.4,502.72,184.56Z" style="fill:#263238"></path><path d="M515.77,182.66c-.09,1.21-.65,2.15-1.25,2.11s-1-1.06-.93-2.27.65-2.15,1.25-2.11S515.85,181.45,515.77,182.66Z" style="fill:#263238"></path><path d="M509.86,177.31s5-4,11.62.25" style="fill:none;stroke:#263238;stroke-linecap:round;stroke-linejoin:round;stroke-width:0.75px"></path><path d="M524.07,200.78s-11,9.76-15.73,1.26" style="fill:#fff;stroke:#263238;stroke-linecap:round;stroke-linejoin:round;stroke-width:0.75px"></path><path d="M496.51,180.14s3.31-4.54,8.93-1.19" style="fill:none;stroke:#263238;stroke-linecap:round;stroke-linejoin:round;stroke-width:0.75px"></path><path d="M505.71,161.36s-16.3,1.06-8.13,11.24C497.58,172.6,497.4,165.27,505.71,161.36Z" style="fill:#263238"></path><path d="M505.71,184.49c0,2.78-2,5-4.42,5s-4.41-2.25-4.41-5,2-4,4.41-4S505.71,181.7,505.71,184.49Z" style="fill:none;stroke:#263238;stroke-linecap:round;stroke-linejoin:round;stroke-width:0.75px"></path><path d="M521.22,182.58a5.55,5.55,0,0,1-11.05,0c0-2.78,2.47-4,5.52-4S521.22,179.8,521.22,182.58Z" style="fill:none;stroke:#263238;stroke-linecap:round;stroke-linejoin:round;stroke-width:0.75px"></path><path d="M505.38,182.58c0-1.21,4.79-1.83,4.79-.62" style="fill:none;stroke:#263238;stroke-linecap:round;stroke-linejoin:round;stroke-width:0.75px"></path><line x1="520.87" y1="180.62" x2="543.91" y2="182.58" style="fill:none;stroke:#263238;stroke-linecap:round;stroke-linejoin:round;stroke-width:0.75px"></line><path d="M507.68,315.55c9.63,17.07,34.05,52.92,70.13,55" style="fill:none;stroke:#263238;stroke-linecap:round;stroke-linejoin:round;stroke-width:0.75px"></path><path d="M503.07,306.65s.71,1.57,2.08,4.23" style="fill:none;stroke:#263238;stroke-linecap:round;stroke-linejoin:round;stroke-width:0.75px"></path><path d="M556.12,219.09c-1.6,0-3.22.1-4.86.17-.88,7.43-9.56,9.58-17.58,9.58-7.82,0-12.26-2.05-12.88-9.05-1.64,0-3.26,0-4.85,0,.64,9.91,7.17,13.81,17.73,13.81C544.47,233.55,555.46,229.48,556.12,219.09Z" style="fill:#92E3A9;stroke:#263238;stroke-miterlimit:10"></path><path d="M459.31,292.56s-.44-12.35,1.32-12.94,1.76,6.76,6.47,6.47" style="fill:none;stroke:#263238;stroke-linecap:round;stroke-linejoin:round;stroke-width:0.75px"></path><rect x="280.05" y="189.77" width="126.36" height="18.14" rx="4.42" transform="translate(7.01 -11.63) rotate(1.96)" style="fill:#fff;stroke:#263238;stroke-linecap:round;stroke-linejoin:round;stroke-width:0.75px"></rect><path d="M335.85,199.82v-1l4.07-1.75v1.06l-2.8,1.19,2.8,1.18v1.07Z" style="fill:#263238"></path><path d="M344.44,194.67h1.26L342,204h-1.27Z" style="fill:#263238"></path><path d="M346.54,200.51l2.81-1.18-2.81-1.19v-1.06l4.07,1.75v1l-4.07,1.76Z" style="fill:#263238"></path><line x1="273.94" y1="193.98" x2="271.08" y2="193.98" style="fill:none;stroke:#263238;stroke-linecap:round;stroke-linejoin:round;stroke-width:0.75px"></line></g><g id="freepik--character-1--inject-16"><rect x="260.28" y="159.39" width="126.36" height="18.14" rx="4.42" transform="translate(-21.66 50.59) rotate(-8.65)" style="fill:#92E3A9;stroke:#263238;stroke-linecap:round;stroke-linejoin:round;stroke-width:0.75px"></rect><path d="M92.56,234.09S82.29,239.16,80,249.35c0,0-2.91-2.91-4.07,9.61,0,0-25.92,48.06-26.22,68.74s48.64,54.17,48.64,54.17,5.25-7,4.08-13.4c0,0-18.93-35.82-28.54-40.19,0,0,10.77-26.21,18.06-31.16S92.56,234.09,92.56,234.09Z" style="fill:#263238;stroke:#263238;stroke-linecap:round;stroke-linejoin:round;stroke-width:0.75px"></path><path d="M73.85,328.28S82.2,308,89.16,299.74c-3.56-9.14-10.18-24.33-13-19.16-4,7.25-14.37,44.43-8.46,49.88s-3.69,5.76.74,13c3.76,6.13,24.94,26.44,33.2,32.1a14.13,14.13,0,0,0,.79-7.09S83.46,332.65,73.85,328.28Z" style="opacity:0.2"></path><path d="M79.08,260.89s1,15,4.45,23.56" style="fill:none;stroke:#7f7f7f;stroke-linecap:round;stroke-linejoin:round;stroke-width:0.75px"></path><path d="M71.93,331.24s-5.46,5.86-13,5.07" style="fill:none;stroke:#7f7f7f;stroke-linecap:round;stroke-linejoin:round;stroke-width:0.75px"></path><line x1="93.38" y1="357.71" x2="93.94" y2="375.46" style="fill:none;stroke:#7f7f7f;stroke-linecap:round;stroke-linejoin:round;stroke-width:0.75px"></line><path d="M180.74,388.86S193,427.22,195.3,446.19H95.69s-.87-45,2.91-59.37Z" style="fill:#92E3A9;stroke:#263238;stroke-linecap:round;stroke-linejoin:round;stroke-width:0.75px"></path><path d="M138.85,436c2.24,2,6.6,10.15,6.6,10.15" style="fill:none;stroke:#263238;stroke-linecap:round;stroke-linejoin:round;stroke-width:0.75px"></path><path d="M117.83,410.12A170.8,170.8,0,0,0,134.76,432" style="fill:none;stroke:#263238;stroke-linecap:round;stroke-linejoin:round;stroke-width:0.75px"></path><path d="M144.91,158.19s7.58-6.79,5.83-11.07c-2.28-5.57-8.16,2.72-8.16,2.72s2.33-8.54-2.65-10.68c-5.33-2.28-9.77,7.77-9.77,7.77s-1.38-8.63-8.94-6.8c-6.4,1.56-1.16,8.74-6.4,11.07s-22.53,8.35-19.23,20c0,0-4.66-9.13-6.4-5.44s4.27,8.74,6.6,9.32c0,0-3.69,7.77-.78,9.91s2.33-5.63,2.33-5.63,1.9,21.4,22.53,32.62,20.06-26,20.06-26l5.18-16.7Z" style="fill:#263238;stroke:#263238;stroke-linecap:round;stroke-linejoin:round;stroke-width:0.75px"></path><path d="M118.64,156.64c-8.68,2.72-21.74,6-16.08,23.3" style="fill:none;stroke:#7f7f7f;stroke-linecap:round;stroke-linejoin:round;stroke-width:0.75px"></path><path d="M122.39,143.63s3.24,6.75-.15,10.76" style="fill:none;stroke:#7f7f7f;stroke-linecap:round;stroke-linejoin:round;stroke-width:0.75px"></path><path d="M112.49,190.62c.46,1.1,1,2.24,1.55,3.42" style="fill:none;stroke:#7f7f7f;stroke-linecap:round;stroke-linejoin:round;stroke-width:0.75px"></path><path d="M135.53,150.64a17.4,17.4,0,0,1-7.51,6.58c-9,4.32-23.17,9.29-17.2,28.81" style="fill:none;stroke:#7f7f7f;stroke-linecap:round;stroke-linejoin:round;stroke-width:0.75px"></path><path d="M137.92,142.85a13.7,13.7,0,0,1-.65,3.91" style="fill:none;stroke:#7f7f7f;stroke-linecap:round;stroke-linejoin:round;stroke-width:0.75px"></path><path d="M122.3,166.54c-4.6,3.54,2,8.23,4.75,14.17" style="fill:none;stroke:#7f7f7f;stroke-linecap:round;stroke-linejoin:round;stroke-width:0.75px"></path><path d="M148,149.07s-8.54,11.65-21,15.33" style="fill:none;stroke:#7f7f7f;stroke-linecap:round;stroke-linejoin:round;stroke-width:0.75px"></path><path d="M96.57,389.44s-.59-21-3.5-53.59S73.85,238,96.57,232.17s68-9.49,83.29,5.24c16.9,16.31,4.08,107.18,3.5,122.91s2.33,33.78,2.33,33.78S125.4,407.21,96.57,389.44Z" style="fill:#263238;stroke:#263238;stroke-linecap:round;stroke-linejoin:round;stroke-width:0.75px"></path><path d="M183.36,360.32c.23-6.31,2.43-24.7,3.9-45.52-1.55-9.84-3-19-4.12-25.66C179,264.06,139.41,262.69,109.4,266c-14.56,1.58-20,15.76-21.75,29.94,2,14.67,4.45,29.12,5.42,40,2.91,32.62,3.5,53.59,3.5,53.59,28.83,17.77,89.12,4.66,89.12,4.66S182.78,376.05,183.36,360.32Z" style="opacity:0.2"></path><path d="M143.94,223.43v-6.6s11.28,1.75,12.83-1.17-1-14.95-1-14.95,5.43.2,5.43-2.33-6.4-13.2-6.4-13.2.77-8.54,0-11.26-8.74-18.06-8.74-18.06-11.65,6.4-11.26,9.9,3.69,6.8,1,9.71-6.41,10.77-5.25,14.51l-1.74,1.22s-1-7-4.86-8.16-7,6.61-4.27,12,5.83,4.47,5.83,4.47-1.56,9.32-5.63,12.43l-1.23,9.7Z" style="fill:#fff;stroke:#263238;stroke-linecap:round;stroke-linejoin:round;stroke-width:0.75px"></path><ellipse cx="151.42" cy="183.04" rx="1.26" ry="2.33" style="fill:#263238"></ellipse><path d="M142.78,199s.91,2.52,8.22,2.91" style="fill:none;stroke:#263238;stroke-linecap:round;stroke-linejoin:round;stroke-width:0.75px"></path><path d="M151.42,176.45a5,5,0,0,0-5.34,3.49" style="fill:none;stroke:#263238;stroke-linecap:round;stroke-linejoin:round;stroke-width:0.75px"></path><path d="M110.93,232.61s-7.76-10.54,0-11.7,39.61-3.89,44.66,0-7.76,2.72-8.54,9.32S110.93,232.61,110.93,232.61Z" style="fill:#263238;stroke:#263238;stroke-linecap:round;stroke-linejoin:round;stroke-width:0.75px"></path><path d="M158.86,185c0,3.75-1.09,6.78-2.44,6.78s-2.44-3-2.44-6.78,1.09-6.78,2.44-6.78S158.86,181.22,158.86,185Z" style="fill:none;stroke:#263238;stroke-linecap:round;stroke-linejoin:round;stroke-width:0.75px"></path><path d="M158.32,180.71l-26.84,2a9.59,9.59,0,0,0-5.23,2" style="fill:none;stroke:#263238;stroke-linecap:round;stroke-linejoin:round"></path><path d="M239.3,206.49l6.34-14.12s3.7-15.31,6.63-18.64,7.69-9.35,9.2-7.68c1.1,1.2-.26,5.3-2.68,8.45-2.62,3.42-.49,6.63.47,8s6.67,4.18,11.13,4.76,13.35-5.06,16.41-3.08-3.18,4.16-3.18,4.16,4.81-.64,5.82,2.06c.59,1.6-4.35,1.57-6.76,1.81s-7.3,1-7.3,1,8.78,1.12,8.67,3.52-6.59.15-11.51.34c0,0,7.06,1.82,6.67,4.13s-4.12-.12-10-1.14l-13.66-1.73-4.31,15.94Z" style="fill:#fff;stroke:#263238;stroke-linecap:round;stroke-linejoin:round;stroke-width:0.75px"></path><path d="M280.05,189.14a13.36,13.36,0,0,1-10.26,1.31s.58,1.89,0,2.69-.51,2.4-2,3.42a21.65,21.65,0,0,1-2.33,1.46" style="fill:none;stroke:#263238;stroke-linecap:round;stroke-linejoin:round;stroke-width:0.75px"></path><path d="M158.86,228.58s21.5.09,29.7,6.79c0,0,0-3.49,6.45,0,0,0,19.51-2.33,28.54,0,0,0,11.07-27.38,17.77-34.66,0,0,9.61.59,12.23,4.95,1.25,2.08-1.7,13.5-4.44,25.13-3,12.84-6.07,25.94-8.67,27-4.95,2-57.08,6.7-57.08,6.7l-24.5-12.82Z" style="fill:#263238;stroke:#263238;stroke-linecap:round;stroke-linejoin:round;stroke-width:0.75px"></path><path d="M253.82,206.78a2.48,2.48,0,0,0-.88-.46c-7.42-2-11.08,39.72-16.82,44.64s-36.79,1.74-44.61.11c-5.83-1.21-4.6,8.17-3.6,13,12.79-1.19,48.48-4.61,52.53-6.28,2.6-1.07,5.64-14.17,8.67-27C251.53,220.53,254.1,210.44,253.82,206.78Z" style="opacity:0.2"></path><path d="M226.17,236.54s4.37.87,9.61,7.86" style="fill:none;stroke:#7f7f7f;stroke-linecap:round;stroke-linejoin:round;stroke-width:0.75px"></path><path d="M190.93,240.47a45.54,45.54,0,0,1,0,20.24" style="fill:none;stroke:#7f7f7f;stroke-linecap:round;stroke-linejoin:round;stroke-width:0.75px"></path><path d="M172.59,232.61s14,7.38,15,28.1" style="fill:none;stroke:#7f7f7f;stroke-linecap:round;stroke-linejoin:round;stroke-width:0.75px"></path><path d="M173.47,367a16.53,16.53,0,0,0,2.32-4" style="fill:none;stroke:#7f7f7f;stroke-linecap:round;stroke-linejoin:round;stroke-width:0.75px"></path><path d="M106.66,378.18s46.18,6.08,63.71-8.07" style="fill:none;stroke:#7f7f7f;stroke-linecap:round;stroke-linejoin:round;stroke-width:0.75px"></path><path d="M316.77,171.56l-.81-4.94a2.16,2.16,0,1,1,4.25-.7l.16,1-1.36.22-.18-1.06c-.1-.6-.43-.8-.86-.73s-.68.36-.58,1l.84,5.13c.1.61.43.8.86.72s.69-.35.59-1l-.23-1.4,1.36-.22.22,1.29a2.16,2.16,0,1,1-4.26.71Z" style="fill:#263238"></path><path d="M321.66,170.7l-.08-.53,1.36-.23.11.64c.11.65.43.84.89.76s.71-.35.6-1-.49-1.2-1.58-1.87c-1.38-.86-1.9-1.55-2.07-2.6a2,2,0,0,1,1.78-2.64c1.4-.23,2.23.5,2.48,2l.06.38-1.36.22-.08-.47c-.11-.66-.42-.86-.87-.79s-.69.37-.58,1,.49,1.11,1.57,1.78A3.6,3.6,0,0,1,326,170a2.08,2.08,0,0,1-1.8,2.7C322.75,172.89,321.91,172.17,321.66,170.7Z" style="fill:#263238"></path><path d="M326.55,169.89l-.09-.53,1.37-.22.1.63c.11.66.44.84.9.77s.71-.36.6-1-.5-1.2-1.58-1.87c-1.38-.87-1.9-1.55-2.07-2.6a2,2,0,0,1,1.77-2.64c1.41-.23,2.24.49,2.48,2l.07.38-1.37.23-.08-.47c-.1-.66-.41-.87-.87-.79s-.68.37-.58,1,.5,1.1,1.58,1.77a3.62,3.62,0,0,1,2.07,2.68,2.06,2.06,0,0,1-1.79,2.7C327.64,172.08,326.79,171.36,326.55,169.89Z" style="fill:#263238"></path></g></svg>