<svg xmlns="http://www.w3.org/2000/svg" viewBox="0 0 800 600" width="800" height="600">
  <defs>
    <linearGradient id="bg" x1="0" y1="0" x2="1" y2="1">
      <stop offset="0%" stop-color="#eef9ff"/>
      <stop offset="100%" stop-color="#e4f4ff"/>
    </linearGradient>
    <linearGradient id="accent" x1="0" y1="0" x2="1" y2="1">
      <stop offset="0%" stop-color="#28b6f6"/>
      <stop offset="100%" stop-color="#2f7df5"/>
    </linearGradient>
  </defs>

  <rect width="800" height="600" fill="url(#bg)"/>

  <rect x="120" y="92" width="560" height="416" rx="24" fill="#ffffff" stroke="#d7ecff" stroke-width="2"/>

  <g transform="translate(400 250)">
    <circle cx="0" cy="0" r="18" fill="url(#accent)"/>
    <ellipse cx="0" cy="0" rx="74" ry="30" fill="none" stroke="#45bff7" stroke-width="8"/>
    <ellipse cx="0" cy="0" rx="74" ry="30" transform="rotate(60)" fill="none" stroke="#45bff7" stroke-width="8"/>
    <ellipse cx="0" cy="0" rx="74" ry="30" transform="rotate(120)" fill="none" stroke="#45bff7" stroke-width="8"/>
  </g>

  <rect x="170" y="332" width="220" height="96" rx="14" fill="#f4fbff" stroke="#cfeaff"/>
  <rect x="410" y="332" width="220" height="96" rx="14" fill="#f4fbff" stroke="#cfeaff"/>

  <text x="280" y="370" text-anchor="middle" font-family="JetBrains Mono, monospace" font-size="18" fill="#2f6fa3">interface Props</text>
  <text x="280" y="394" text-anchor="middle" font-family="JetBrains Mono, monospace" font-size="15" fill="#4d85b1">title: string</text>

  <text x="520" y="370" text-anchor="middle" font-family="JetBrains Mono, monospace" font-size="18" fill="#2f6fa3">type Props</text>
  <text x="520" y="394" text-anchor="middle" font-family="JetBrains Mono, monospace" font-size="15" fill="#4d85b1">onClick: () =&gt; void</text>

  <line x1="400" y1="292" x2="400" y2="332" stroke="#44b9f7" stroke-width="4"/>
  <polygon points="400,334 392,322 408,322" fill="#44b9f7"/>

</svg>
