<?xml version="1.0" encoding="UTF-8"?>
<svg version="1.1" xmlns="http://www.w3.org/2000/svg" width="148" height="148">
<path d="M0 0 C48.84 0 97.68 0 148 0 C148 48.84 148 97.68 148 148 C99.16 148 50.32 148 0 148 C0 99.16 0 50.32 0 0 Z " fill="#FF3C41" transform="translate(0,0)"/>
<path d="M0 0 C1.34161194 -0.00503792 1.34161194 -0.00503792 2.71032715 -0.01017761 C5.67669043 -0.01970269 8.64299737 -0.02163139 11.609375 -0.02270508 C13.66438826 -0.02591616 15.71940129 -0.02928012 17.77441406 -0.03279114 C22.08529185 -0.03878602 26.39614958 -0.04063063 30.70703125 -0.04003906 C36.24234199 -0.03993733 41.77752479 -0.05359987 47.31280518 -0.07081127 C51.55746049 -0.08190535 55.8020846 -0.08395909 60.04675293 -0.08342934 C62.08817995 -0.08461298 64.12960769 -0.08905609 66.17102051 -0.0967617 C69.02035611 -0.10651105 71.86941029 -0.10370386 74.71875 -0.09765625 C75.5686853 -0.10327576 76.41862061 -0.10889526 77.29431152 -0.11468506 C83.13105856 -0.08305276 83.13105856 -0.08305276 85.359375 2.14526367 C85.55823624 5.11733361 85.63202141 7.99625399 85.61816406 10.96948242 C85.6216687 11.88339752 85.62517334 12.79731262 85.62878418 13.73892212 C85.63761149 16.77027912 85.63174881 19.80140415 85.625 22.83276367 C85.62634636 24.93261765 85.62828665 27.03247132 85.63079834 29.13232422 C85.63375096 33.53738365 85.62944751 37.94236208 85.62011719 42.34741211 C85.60872261 48.00380399 85.61528134 53.66000608 85.62726212 59.31639099 C85.63447698 63.65370116 85.6321945 67.99096608 85.62700653 72.32827759 C85.625669 74.41435773 85.62732135 76.50044193 85.63196564 78.58651733 C85.63702473 81.49813781 85.62932932 84.40944768 85.61816406 87.32104492 C85.62221252 88.1896817 85.62626099 89.05831848 85.63043213 89.95327759 C85.58790272 95.91673595 85.58790272 95.91673595 83.359375 98.14526367 C80.359375 98.39526367 80.359375 98.39526367 77.359375 98.14526367 C74.80007038 95.58595905 75.12373866 93.92721591 75.11053467 90.43875122 C75.1213205 89.24329178 75.1213205 89.24329178 75.13232422 88.02368164 C75.13203217 87.18458252 75.13174011 86.3454834 75.13143921 85.48095703 C75.13283567 82.69968423 75.14841165 79.91867733 75.1640625 77.13745117 C75.16779151 75.21216986 75.17063901 73.28688666 75.17263794 71.36160278 C75.18028324 66.28821597 75.1999394 61.21494323 75.2220459 56.14160156 C75.24248505 50.96705671 75.25163552 45.79249348 75.26171875 40.61791992 C75.28318446 30.46031765 75.31733119 20.30280014 75.359375 10.14526367 C74.29892975 10.1497049 73.2384845 10.15414612 72.14590454 10.15872192 C62.16899461 10.19920479 52.19210127 10.2292176 42.21512794 10.24888802 C37.08544119 10.2593406 31.95582056 10.27352661 26.82617188 10.29614258 C21.87897463 10.3178185 16.93184112 10.32982118 11.98460007 10.33501816 C10.09388602 10.33872338 8.20317559 10.3459584 6.31248856 10.35672379 C3.67130143 10.371169 1.0303802 10.37324456 -1.61083984 10.37231445 C-2.39846207 10.379505 -3.18608429 10.38669556 -3.99757385 10.394104 C-9.41252068 10.37336799 -9.41252068 10.37336799 -11.640625 8.14526367 C-11.390625 4.58276367 -11.390625 4.58276367 -10.640625 1.14526367 C-7.33138669 -0.50935548 -3.63803235 -0.0019398 0 0 Z " fill="#FFFDFD" transform="translate(35.640625,25.854736328125)"/>
<path d="M0 0 C1.14806625 -0.01268417 2.29613251 -0.02536835 3.47898865 -0.03843689 C5.33995934 -0.03403343 5.33995934 -0.03403343 7.23852539 -0.02954102 C8.51216446 -0.03478287 9.78580353 -0.04002472 11.09803772 -0.04542542 C13.79418733 -0.05185516 16.48949257 -0.05193156 19.18554688 -0.04199219 C22.63702059 -0.03050659 26.08747057 -0.05070425 29.53880978 -0.07990932 C32.83455358 -0.10269093 36.13022128 -0.0958039 39.42602539 -0.09204102 C40.66464828 -0.10327499 41.90327118 -0.11450897 43.1794281 -0.12608337 C44.33064651 -0.11670242 45.48186493 -0.10732147 46.66796875 -0.09765625 C48.18661781 -0.097407 48.18661781 -0.097407 49.73594666 -0.09715271 C53.19822851 0.55455109 54.35605349 1.55478506 56.39868164 4.40405273 C56.89315796 7.10475159 56.89315796 7.10475159 56.88452148 10.2265625 C56.89375137 11.98342125 56.89375137 11.98342125 56.90316772 13.77577209 C56.88879669 15.03626877 56.87442566 16.29676544 56.85961914 17.59545898 C56.8587027 18.89225082 56.85778625 20.18904266 56.85684204 21.52513123 C56.85371807 24.26648468 56.83718359 27.00731363 56.81030273 29.74853516 C56.77628931 33.26149095 56.76867532 36.77387181 56.7701931 40.286973 C56.76951849 43.63987864 56.75184304 46.99259581 56.73461914 50.34545898 C56.73239349 51.60797989 56.73016785 52.87050079 56.72787476 54.17127991 C56.71511505 55.33936691 56.70235535 56.50745392 56.68920898 57.7109375 C56.67777359 59.25504051 56.67777359 59.25504051 56.66610718 60.83033752 C56.39868164 63.40405273 56.39868164 63.40405273 54.39868164 66.40405273 C49.30145112 67.05476301 49.30145112 67.05476301 46.7285614 65.20024109 C44.94377496 62.78963773 45.03643018 61.2740032 45.05810547 58.29003906 C45.05844536 56.7287603 45.05844536 56.7287603 45.05879211 55.13594055 C45.07427597 54.01398788 45.08975983 52.89203522 45.10571289 51.73608398 C45.10995773 50.58613449 45.11420258 49.436185 45.11857605 48.25138855 C45.13538975 44.57287332 45.17304787 40.89490281 45.21118164 37.21655273 C45.22622495 34.72502418 45.23991397 32.23348705 45.25219727 29.74194336 C45.28530211 23.6291268 45.33552859 17.51662868 45.39868164 11.40405273 C44.45027657 11.41071457 44.45027657 11.41071457 43.48271179 11.41751099 C36.9131394 11.46169391 30.34360909 11.49189817 23.77392578 11.51391602 C21.32078335 11.52398519 18.86765295 11.53764134 16.41455078 11.55493164 C12.89230381 11.57913952 9.37021526 11.59052662 5.84790039 11.59936523 C4.19778206 11.61484909 4.19778206 11.61484909 2.514328 11.63064575 C0.98308037 11.63087234 0.98308037 11.63087234 -0.57910156 11.63110352 C-1.47844925 11.63554474 -2.37779694 11.63998596 -3.30439758 11.64456177 C-5.60131836 11.40405273 -5.60131836 11.40405273 -8.60131836 9.40405273 C-8.99178057 6.34543211 -9.24719585 4.32119255 -7.42796326 1.73789978 C-4.89245133 -0.11357398 -3.12426058 0.01668615 0 0 Z " fill="#FFF7F7" transform="translate(41.601318359375,47.595947265625)"/>
<path d="M0 0 C1.30517578 0.00322266 2.61035156 0.00644531 3.95507812 0.00976562 C5.25638672 -0.00634766 6.55769531 -0.02246094 7.8984375 -0.0390625 C9.76532227 -0.0400293 9.76532227 -0.0400293 11.66992188 -0.04101562 C12.81452881 -0.04399658 13.95913574 -0.04697754 15.13842773 -0.05004883 C18.01757812 0.32226562 18.01757812 0.32226562 19.8894043 1.43676758 C21.57306126 4.2506353 21.40666872 6.593671 21.41601562 9.85351562 C21.42181641 11.78130859 21.42181641 11.78130859 21.42773438 13.74804688 C21.4214502 14.41658691 21.41516602 15.08512695 21.40869141 15.77392578 C21.39263167 17.81545892 21.40854484 19.8550127 21.42773438 21.89648438 C21.42386719 23.18167969 21.42 24.466875 21.41601562 25.79101562 C21.41263184 26.97115234 21.40924805 28.15128906 21.40576172 29.3671875 C21.01757812 32.32226562 21.01757812 32.32226562 19.64892578 34.20703125 C17.30446495 35.80976951 15.79302548 35.73858273 13.01757812 35.32226562 C10.80271598 33.6752322 10.09121206 32.81268349 9.67700195 30.05395508 C9.6927124 29.18988037 9.70842285 28.32580566 9.72460938 27.43554688 C9.73427734 26.49775391 9.74394531 25.55996094 9.75390625 24.59375 C9.77904297 23.61728516 9.80417969 22.64082031 9.83007812 21.63476562 C9.85038086 20.15266602 9.85038086 20.15266602 9.87109375 18.640625 C9.90645609 16.20062332 9.9558078 13.76171844 10.01757812 11.32226562 C9.18564941 11.35368652 9.18564941 11.35368652 8.33691406 11.38574219 C5.8139879 11.4691011 3.29135164 11.52098431 0.76757812 11.57226562 C-0.54146484 11.62253906 -0.54146484 11.62253906 -1.87695312 11.67382812 C-8.34588676 11.77259047 -8.34588676 11.77259047 -11.59960938 9.47070312 C-12.98242188 7.32226562 -12.98242188 7.32226562 -12.85742188 4.69726562 C-10.60650025 -1.41237878 -5.62912784 0.03209974 0 0 Z " fill="#FFF5F5" transform="translate(54.982421875,70.677734375)"/>
<path d="M0 0 C0.33 0 0.66 0 1 0 C1 3.3 1 6.6 1 10 C-2.63 10 -6.26 10 -10 10 C-8.68 9.34 -7.36 8.68 -6 8 C-2.16888257 4.55703422 -2.16888257 4.55703422 0 0 Z " fill="#FFEFEF" transform="translate(147,138)"/>
<path d="M0 0 C0.66 1.32 1.32 2.64 2 4 C4.54716565 6.74310146 6.88140016 8.92093344 10 11 C6.7 11 3.4 11 0 11 C0 7.37 0 3.74 0 0 Z " fill="#FFEFEF" transform="translate(0,137)"/>
<path d="M0 0 C3.3 0 6.6 0 10 0 C10 3.3 10 6.6 10 10 C9.34 9.01 8.68 8.02 8 7 C5.43324403 4.30161552 3.10451137 2.06967424 0 0 Z " fill="#FFF2F2" transform="translate(138,0)"/>
<path d="M0 0 C3.3 0 6.6 0 10 0 C9.01 0.66 8.02 1.32 7 2 C4.30161552 4.56675597 2.06967424 6.89548863 0 10 C0 6.7 0 3.4 0 0 Z " fill="#FFF2F2" transform="translate(0,0)"/>
</svg>
